ffmpeg version 8.1-full_build-www.gyan.dev Copyright (c) 2000-2026 the FFmpeg developers
  built with gcc 15.2.0 (Rev11, Built by MSYS2 project)
  configuration: --enable-gpl --enable-version3 --enable-static --disable-w32threads --disable-autodetect --enable-cairo --enable-fontconfig --enable-iconv --enable-gnutls --enable-lcms2 --enable-libxml2 --enable-gmp --enable-bzlib --enable-lzma --enable-libsnappy --enable-zlib --enable-librist --enable-libsrt --enable-libssh --enable-libzmq --enable-avisynth --enable-libbluray --enable-libcaca --enable-libdvdnav --enable-libdvdread --enable-sdl2 --enable-libaribb24 --enable-libaribcaption --enable-libdav1d --enable-libdavs2 --enable-libopenjpeg --enable-libquirc --enable-libuavs3d --enable-libxevd --enable-libzvbi --enable-liboapv --enable-libqrencode --enable-librav1e --enable-libsvtav1 --enable-libvvenc --enable-libwebp --enable-libx264 --enable-libx265 --enable-libxavs2 --enable-libxeve --enable-libxvid --enable-libaom --enable-libjxl --enable-libsvtjpegxs --enable-libvpx --enable-mediafoundation --enable-libass --enable-frei0r --enable-libfreetype --enable-libfribidi --enable-libharfbuzz --enable-liblensfun --enable-libvidstab --enable-libvmaf --enable-libzimg --enable-amf --enable-cuda-llvm --enable-cuvid --enable-dxva2 --enable-d3d11va --enable-d3d12va --enable-ffnvcodec --enable-libvpl --enable-nvdec --enable-nvenc --enable-vaapi --enable-libshaderc --enable-vulkan --enable-libplacebo --enable-opencl --enable-libcdio --enable-openal --enable-libgme --enable-libmodplug --enable-libopenmpt --enable-libopencore-amrwb --enable-libmp3lame --enable-libshine --enable-libtheora --enable-libtwolame --enable-libvo-amrwbenc --enable-libcodec2 --enable-libilbc --enable-libgsm --enable-liblc3 --enable-libopencore-amrnb --enable-libopus --enable-libspeex --enable-libvorbis --enable-ladspa --enable-libbs2b --enable-libflite --enable-libmysofa --enable-librubberband --enable-libsoxr --enable-chromaprint --enable-whisper
  libavutil      60. 26.100 / 60. 26.100
  libavcodec     62. 28.100 / 62. 28.100
  libavformat    62. 12.100 / 62. 12.100
  libavdevice    62.  3.100 / 62.  3.100
  libavfilter    11. 14.100 / 11. 14.100
  libswscale      9.  5.100 /  9.  5.100
  libswresample   6.  3.100 /  6.  3.100
[in#0 @ 000002cb5cb08640] Capturing whole desktop as 1920x1080x32 at (0,0)
[in#0/gdigrab @ 000002cb5cb08640] Stream #0: not enough frames to estimate rate; consider increasing probesize
Input #0, gdigrab, from 'desktop':
  Duration: N/A, start: 1778914918.236190, bitrate: 1990668 kb/s
  Stream #0:0: Video: bmp, bgra, 1920x1080, 1990668 kb/s, 30 fps, 1000k tbr, 1000k tbn, start 1778914918.236190
Stream mapping:
  Stream #0:0 -> #0:0 (bmp (native) -> h264 (libx264))
Press [q] to stop, [?] for help
[libx264 @ 000002cb5cb0e700] using cpu capabilities: MMX2 SSE2Fast SSSE3 SSE4.2 AVX FMA3 BMI2 AVX2 AVX512
[libx264 @ 000002cb5cb0e700] profile High, level 4.0, 4:2:0, 8-bit
[libx264 @ 000002cb5cb0e700] 264 - core 165 r3223 0480cb0 - H.264/MPEG-4 AVC codec - Copyleft 2003-2025 - http://www.videolan.org/x264.html - options: cabac=1 ref=1 deblock=1:0:0 analyse=0x3:0x113 me=hex subme=2 psy=1 psy_rd=1.00:0.00 mixed_ref=0 me_range=16 chroma_me=1 trellis=0 8x8dct=1 cqm=0 deadzone=21,11 fast_pskip=1 chroma_qp_offset=0 threads=12 lookahead_threads=4 sliced_threads=0 nr=0 decimate=1 interlaced=0 bluray_compat=0 constrained_intra=0 bframes=3 b_pyramid=2 b_adapt=1 b_bias=0 direct=1 weightb=1 open_gop=0 weightp=1 keyint=250 keyint_min=25 scenecut=40 intra_refresh=0 rc_lookahead=10 rc=crf mbtree=1 crf=20.0 qcomp=0.60 qpmin=0 qpmax=69 qpstep=4 ip_ratio=1.40 aq=1:1.00
Output #0, mp4, to 'C:\Users\86150\Desktop\tf_resilient_agent\video\segment_live.mp4':
  Metadata:
    encoder         : Lavf62.12.100
  Stream #0:0: Video: h264 (avc1 / 0x31637661), yuv420p(tv, progressive), 1920x1080, q=2-31, 30 fps, 15360 tbn
    Metadata:
      encoder         : Lavc62.28.100 libx264
    Side data:
      CPB properties: bitrate max/min/avg: 0/0/0 buffer size: 0 vbv_delay: N/A
frame=    0 fps=0.0 q=0.0 size=       0KiB time=N/A bitrate=N/A speed=N/A elapsed=0:00:00.52    frame=    5 fps=4.9 q=26.0 size=       0KiB time=00:00:00.06 bitrate=   5.8kbits/s speed=0.0648x elapsed=0:00:01.02    frame=   21 fps= 14 q=26.0 size=       0KiB time=00:00:00.60 bitrate=   0.6kbits/s speed=0.386x elapsed=0:00:01.55    frame=   36 fps= 17 q=26.0 size=       0KiB time=00:00:01.10 bitrate=   0.3kbits/s speed=0.534x elapsed=0:00:02.06    frame=   52 fps= 20 q=26.0 size=       0KiB time=00:00:01.63 bitrate=   0.2kbits/s speed=0.632x elapsed=0:00:02.58    frame=   67 fps= 22 q=26.0 size=       0KiB time=00:00:02.13 bitrate=   0.2kbits/s speed=0.69x elapsed=0:00:03.09    frame=   83 fps= 23 q=26.0 size=       0KiB time=00:00:02.66 bitrate=   0.1kbits/s speed=0.737x elapsed=0:00:03.61    frame=   98 fps= 24 q=26.0 size=       0KiB time=00:00:03.16 bitrate=   0.1kbits/s speed=0.768x elapsed=0:00:04.12    frame=  113 fps= 24 q=26.0 size=       0KiB time=00:00:03.66 bitrate=   0.1kbits/s speed=0.789x elapsed=0:00:04.64    frame=  128 fps= 25 q=26.0 size=       0KiB time=00:00:04.16 bitrate=   0.1kbits/s speed=0.808x elapsed=0:00:05.15    frame=  144 fps= 25 q=26.0 size=       0KiB time=00:00:04.70 bitrate=   0.1kbits/s speed=0.827x elapsed=0:00:05.68    frame=  160 fps= 26 q=26.0 size=       0KiB time=00:00:05.26 bitrate=   0.1kbits/s speed=0.851x elapsed=0:00:06.18    frame=  175 fps= 26 q=26.0 size=       0KiB time=00:00:05.76 bitrate=   0.1kbits/s speed=0.859x elapsed=0:00:06.71    frame=  191 fps= 26 q=26.0 size=       0KiB time=00:00:06.30 bitrate=   0.1kbits/s speed=0.873x elapsed=0:00:07.22    frame=  206 fps= 27 q=26.0 size=     256KiB time=00:00:06.80 bitrate= 308.5kbits/s speed=0.878x elapsed=0:00:07.74    frame=  221 fps= 27 q=26.0 size=     256KiB time=00:00:07.30 bitrate= 287.3kbits/s dup=0 drop=1 speed=0.885x elapsed=0:00:08.25    frame=  236 fps= 27 q=26.0 size=     256KiB time=00:00:07.80 bitrate= 268.9kbits/s dup=0 drop=1 speed=0.889x elapsed=0:00:08.77    frame=  252 fps= 27 q=26.0 size=     256KiB time=00:00:08.33 bitrate= 251.7kbits/s dup=0 drop=1 speed=0.898x elapsed=0:00:09.28    frame=  267 fps= 27 q=26.0 size=     256KiB time=00:00:08.83 bitrate= 237.5kbits/s dup=0 drop=1 speed=0.901x elapsed=0:00:09.80    frame=  283 fps= 27 q=26.0 size=     256KiB time=00:00:09.36 bitrate= 223.9kbits/s dup=0 drop=1 speed=0.908x elapsed=0:00:10.31    frame=  298 fps= 28 q=26.0 size=     512KiB time=00:00:09.86 bitrate= 425.1kbits/s dup=0 drop=1 speed=0.911x elapsed=0:00:10.82    frame=  313 fps= 28 q=26.0 size=     512KiB time=00:00:10.36 bitrate= 404.6kbits/s dup=0 drop=1 speed=0.914x elapsed=0:00:11.34    frame=  329 fps= 28 q=26.0 size=     512KiB time=00:00:10.90 bitrate= 384.8kbits/s dup=0 drop=1 speed=0.919x elapsed=0:00:11.85    frame=  344 fps= 28 q=26.0 size=     512KiB time=00:00:11.40 bitrate= 368.0kbits/s dup=0 drop=1 speed=0.921x elapsed=0:00:12.37    frame=  360 fps= 28 q=26.0 size=     512KiB time=00:00:11.93 bitrate= 351.5kbits/s dup=0 drop=1 speed=0.926x elapsed=0:00:12.88    frame=  376 fps= 28 q=26.0 size=     512KiB time=00:00:12.46 bitrate= 336.5kbits/s dup=0 drop=1 speed=0.929x elapsed=0:00:13.41    frame=  391 fps= 28 q=26.0 size=     512KiB time=00:00:12.96 bitrate= 323.5kbits/s dup=0 drop=1 speed=0.931x elapsed=0:00:13.92    frame=  406 fps= 28 q=26.0 size=     512KiB time=00:00:13.46 bitrate= 311.5kbits/s dup=0 drop=1 speed=0.932x elapsed=0:00:14.44    frame=  422 fps= 28 q=26.0 size=     512KiB time=00:00:14.00 bitrate= 299.6kbits/s dup=0 drop=1 speed=0.936x elapsed=0:00:14.95    frame=  437 fps= 28 q=26.0 size=     768KiB time=00:00:14.50 bitrate= 433.9kbits/s dup=0 drop=1 speed=0.937x elapsed=0:00:15.47    frame=  453 fps= 28 q=26.0 size=     768KiB time=00:00:15.03 bitrate= 418.5kbits/s dup=0 drop=1 speed=0.94x elapsed=0:00:15.98    frame=  469 fps= 28 q=26.0 size=     768KiB time=00:00:15.56 bitrate= 404.2kbits/s dup=0 drop=1 speed=0.943x elapsed=0:00:16.51    frame=  484 fps= 28 q=26.0 size=     768KiB time=00:00:16.06 bitrate= 391.6kbits/s dup=0 drop=1 speed=0.944x elapsed=0:00:17.02    frame=  499 fps= 28 q=26.0 size=     768KiB time=00:00:16.56 bitrate= 379.8kbits/s dup=0 drop=1 speed=0.944x elapsed=0:00:17.54    frame=  515 fps= 29 q=26.0 size=    1024KiB time=00:00:17.10 bitrate= 490.6kbits/s dup=0 drop=1 speed=0.947x elapsed=0:00:18.05    frame=  530 fps= 29 q=26.0 size=    1280KiB time=00:00:17.60 bitrate= 595.8kbits/s dup=0 drop=1 speed=0.948x elapsed=0:00:18.55    frame=  546 fps= 29 q=26.0 size=    1280KiB time=00:00:18.13 bitrate= 578.3kbits/s dup=0 drop=1 speed=0.95x elapsed=0:00:19.08    frame=  561 fps= 29 q=26.0 size=    1280KiB time=00:00:18.63 bitrate= 562.8kbits/s dup=0 drop=1 speed=0.951x elapsed=0:00:19.59    frame=  577 fps= 29 q=26.0 size=    1280KiB time=00:00:19.16 bitrate= 547.1kbits/s dup=0 drop=1 speed=0.953x elapsed=0:00:20.11    frame=  592 fps= 29 q=26.0 size=    1280KiB time=00:00:19.66 bitrate= 533.2kbits/s dup=0 drop=1 speed=0.954x elapsed=0:00:20.62    frame=  608 fps= 29 q=26.0 size=    1280KiB time=00:00:20.20 bitrate= 519.1kbits/s dup=0 drop=1 speed=0.955x elapsed=0:00:21.14    frame=  622 fps= 29 q=26.0 size=    1280KiB time=00:00:20.66 bitrate= 507.4kbits/s dup=0 drop=1 speed=0.954x elapsed=0:00:21.65    frame=  638 fps= 29 q=26.0 size=    1280KiB time=00:00:21.20 bitrate= 494.6kbits/s dup=0 drop=1 speed=0.956x elapsed=0:00:22.17    frame=  653 fps= 29 q=26.0 size=    1280KiB time=00:00:21.73 bitrate= 482.5kbits/s dup=0 drop=1 speed=0.958x elapsed=0:00:22.68    frame=  669 fps= 29 q=26.0 size=    1280KiB time=00:00:22.26 bitrate= 470.9kbits/s dup=0 drop=1 speed=0.959x elapsed=0:00:23.20    frame=  684 fps= 29 q=26.0 size=    1280KiB time=00:00:22.76 bitrate= 460.6kbits/s dup=0 drop=1 speed=0.96x elapsed=0:00:23.71    frame=  700 fps= 29 q=26.0 size=    1280KiB time=00:00:23.30 bitrate= 450.0kbits/s dup=0 drop=1 speed=0.961x elapsed=0:00:24.23    frame=  715 fps= 29 q=26.0 size=    1280KiB time=00:00:23.80 bitrate= 440.6kbits/s dup=0 drop=2 speed=0.961x elapsed=0:00:24.76    frame=  730 fps= 29 q=26.0 size=    1280KiB time=00:00:24.30 bitrate= 431.5kbits/s dup=0 drop=2 speed=0.962x elapsed=0:00:25.26    frame=  745 fps= 29 q=26.0 size=    1280KiB time=00:00:24.80 bitrate= 422.8kbits/s dup=0 drop=2 speed=0.962x elapsed=0:00:25.77    frame=  761 fps= 29 q=26.0 size=    1536KiB time=00:00:25.33 bitrate= 496.7kbits/s dup=0 drop=2 speed=0.963x elapsed=0:00:26.29    frame=  776 fps= 29 q=26.0 size=    1536KiB time=00:00:25.83 bitrate= 487.1kbits/s dup=0 drop=2 speed=0.964x elapsed=0:00:26.80    frame=  792 fps= 29 q=26.0 size=    1536KiB time=00:00:26.36 bitrate= 477.2kbits/s dup=0 drop=2 speed=0.965x elapsed=0:00:27.33    frame=  807 fps= 29 q=26.0 size=    1536KiB time=00:00:26.86 bitrate= 468.4kbits/s dup=0 drop=2 speed=0.965x elapsed=0:00:27.83    frame=  823 fps= 29 q=26.0 size=    1536KiB time=00:00:27.40 bitrate= 459.2kbits/s dup=0 drop=2 speed=0.966x elapsed=0:00:28.36    frame=  838 fps= 29 q=26.0 size=    1536KiB time=00:00:27.90 bitrate= 451.0kbits/s dup=0 drop=2 speed=0.966x elapsed=0:00:28.87    frame=  854 fps= 29 q=26.0 size=    1792KiB time=00:00:28.43 bitrate= 516.3kbits/s dup=0 drop=2 speed=0.967x elapsed=0:00:29.39    frame=  869 fps= 29 q=26.0 size=    1792KiB time=00:00:28.93 bitrate= 507.4kbits/s dup=0 drop=2 speed=0.968x elapsed=0:00:29.90    frame=  885 fps= 29 q=26.0 size=    1792KiB time=00:00:29.46 bitrate= 498.2kbits/s dup=0 drop=2 speed=0.968x elapsed=0:00:30.42    frame=  901 fps= 29 q=26.0 size=    1792KiB time=00:00:30.00 bitrate= 489.3kbits/s dup=0 drop=2 speed=0.969x elapsed=0:00:30.94    frame=  916 fps= 29 q=26.0 size=    1792KiB time=00:00:30.50 bitrate= 481.3kbits/s dup=0 drop=2 speed=0.97x elapsed=0:00:31.45    frame=  931 fps= 29 q=26.0 size=    1792KiB time=00:00:31.00 bitrate= 473.6kbits/s dup=0 drop=2 speed=0.97x elapsed=0:00:31.96    frame=  947 fps= 29 q=26.0 size=    1792KiB time=00:00:31.53 bitrate= 465.6kbits/s dup=0 drop=2 speed=0.971x elapsed=0:00:32.48    frame=  962 fps= 29 q=26.0 size=    1792KiB time=00:00:32.03 bitrate= 458.3kbits/s dup=0 drop=2 speed=0.97x elapsed=0:00:33.01    frame=  978 fps= 29 q=26.0 size=    1792KiB time=00:00:32.56 bitrate= 450.8kbits/s dup=0 drop=2 speed=0.972x elapsed=0:00:33.51    frame=  993 fps= 29 q=26.0 size=    1792KiB time=00:00:33.06 bitrate= 444.0kbits/s dup=0 drop=2 speed=0.972x elapsed=0:00:34.02    frame= 1009 fps= 29 q=26.0 size=    2048KiB time=00:00:33.60 bitrate= 499.3kbits/s dup=0 drop=2 speed=0.972x elapsed=0:00:34.55    frame= 1024 fps= 29 q=26.0 size=    2048KiB time=00:00:34.10 bitrate= 492.0kbits/s dup=0 drop=2 speed=0.972x elapsed=0:00:35.07    frame= 1040 fps= 29 q=26.0 size=    2048KiB time=00:00:34.63 bitrate= 484.4kbits/s dup=0 drop=2 speed=0.973x elapsed=0:00:35.58    frame= 1055 fps= 29 q=26.0 size=    2048KiB time=00:00:35.13 bitrate= 477.5kbits/s dup=0 drop=2 speed=0.973x elapsed=0:00:36.10    frame= 1071 fps= 29 q=26.0 size=    2048KiB time=00:00:35.66 bitrate= 470.4kbits/s dup=0 drop=2 speed=0.974x elapsed=0:00:36.61    frame= 1086 fps= 29 q=26.0 size=    2048KiB time=00:00:36.16 bitrate= 463.9kbits/s dup=0 drop=2 speed=0.974x elapsed=0:00:37.13    frame= 1101 fps= 29 q=26.0 size=    2048KiB time=00:00:36.66 bitrate= 457.6kbits/s dup=0 drop=2 speed=0.974x elapsed=0:00:37.64    frame= 1117 fps= 29 q=26.0 size=    2048KiB time=00:00:37.20 bitrate= 451.0kbits/s dup=0 drop=2 speed=0.975x elapsed=0:00:38.16    frame= 1133 fps= 29 q=26.0 size=    2048KiB time=00:00:37.73 bitrate= 444.6kbits/s dup=0 drop=2 speed=0.976x elapsed=0:00:38.67    frame= 1148 fps= 29 q=26.0 size=    2048KiB time=00:00:38.23 bitrate= 438.8kbits/s dup=0 drop=2 speed=0.975x elapsed=0:00:39.19    frame= 1163 fps= 29 q=26.0 size=    2048KiB time=00:00:38.73 bitrate= 433.2kbits/s dup=0 drop=2 speed=0.976x elapsed=0:00:39.70    frame= 1179 fps= 29 q=26.0 size=    2048KiB time=00:00:39.30 bitrate= 426.9kbits/s dup=0 drop=2 speed=0.977x elapsed=0:00:40.22    frame= 1194 fps= 29 q=26.0 size=    2048KiB time=00:00:39.80 bitrate= 421.5kbits/s dup=0 drop=2 speed=0.977x elapsed=0:00:40.73    frame= 1209 fps= 29 q=26.0 size=    2048KiB time=00:00:40.30 bitrate= 416.3kbits/s dup=0 drop=2 speed=0.977x elapsed=0:00:41.24    frame= 1225 fps= 29 q=26.0 size=    2048KiB time=00:00:40.83 bitrate= 410.9kbits/s dup=0 drop=2 speed=0.978x elapsed=0:00:41.76    frame= 1239 fps= 29 q=26.0 size=    2048KiB time=00:00:41.30 bitrate= 406.2kbits/s dup=0 drop=2 speed=0.977x elapsed=0:00:42.27    frame= 1255 fps= 29 q=26.0 size=    2304KiB time=00:00:41.83 bitrate= 451.2kbits/s dup=0 drop=3 speed=0.977x elapsed=0:00:42.79    frame= 1270 fps= 29 q=26.0 size=    2304KiB time=00:00:42.33 bitrate= 445.9kbits/s dup=0 drop=4 speed=0.977x elapsed=0:00:43.32    frame= 1285 fps= 29 q=26.0 size=    2304KiB time=00:00:42.86 bitrate= 440.3kbits/s dup=0 drop=4 speed=0.978x elapsed=0:00:43.83    frame= 1301 fps= 29 q=26.0 size=    2304KiB time=00:00:43.40 bitrate= 434.9kbits/s dup=0 drop=4 speed=0.978x elapsed=0:00:44.35    frame= 1316 fps= 29 q=26.0 size=    2304KiB time=00:00:43.90 bitrate= 429.9kbits/s dup=0 drop=4 speed=0.979x elapsed=0:00:44.86    frame= 1331 fps= 29 q=26.0 size=    2304KiB time=00:00:44.40 bitrate= 425.1kbits/s dup=0 drop=4 speed=0.979x elapsed=0:00:45.37    frame= 1347 fps= 29 q=26.0 size=    2304KiB time=00:00:44.93 bitrate= 420.1kbits/s dup=0 drop=4 speed=0.979x elapsed=0:00:45.89    frame= 1362 fps= 29 q=26.0 size=    2560KiB time=00:00:45.43 bitrate= 461.6kbits/s dup=0 drop=4 speed=0.979x elapsed=0:00:46.40    frame= 1378 fps= 29 q=26.0 size=    2560KiB time=00:00:45.96 bitrate= 456.2kbits/s dup=0 drop=4 speed=0.98x elapsed=0:00:46.92    frame= 1393 fps= 29 q=26.0 size=    2560KiB time=00:00:46.46 bitrate= 451.3kbits/s dup=0 drop=4 speed=0.98x elapsed=0:00:47.43    frame= 1409 fps= 29 q=26.0 size=    2560KiB time=00:00:47.00 bitrate= 446.2kbits/s dup=0 drop=4 speed=0.98x elapsed=0:00:47.96    frame= 1424 fps= 29 q=26.0 size=    2560KiB time=00:00:47.50 bitrate= 441.5kbits/s dup=0 drop=4 speed=0.98x elapsed=0:00:48.47    frame= 1440 fps= 29 q=26.0 size=    2560KiB time=00:00:48.03 bitrate= 436.6kbits/s dup=0 drop=4 speed=0.98x elapsed=0:00:48.99    frame= 1455 fps= 29 q=26.0 size=    2560KiB time=00:00:48.53 bitrate= 432.1kbits/s dup=0 drop=4 speed=0.98x elapsed=0:00:49.50    frame= 1471 fps= 29 q=26.0 size=    2560KiB time=00:00:49.06 bitrate= 427.4kbits/s dup=0 drop=4 speed=0.981x elapsed=0:00:50.02    frame= 1486 fps= 29 q=26.0 size=    2560KiB time=00:00:49.56 bitrate= 423.1kbits/s dup=0 drop=4 speed=0.981x elapsed=0:00:50.53    frame= 1502 fps= 29 q=26.0 size=    2816KiB time=00:00:50.10 bitrate= 460.5kbits/s dup=0 drop=4 speed=0.981x elapsed=0:00:51.05    frame= 1517 fps= 29 q=26.0 size=    2816KiB time=00:00:50.60 bitrate= 455.9kbits/s dup=0 drop=4 speed=0.981x elapsed=0:00:51.56    frame= 1533 fps= 29 q=26.0 size=    2816KiB time=00:00:51.13 bitrate= 451.2kbits/s dup=0 drop=4 speed=0.982x elapsed=0:00:52.08    frame= 1548 fps= 29 q=26.0 size=    2816KiB time=00:00:51.63 bitrate= 446.8kbits/s dup=0 drop=4 speed=0.982x elapsed=0:00:52.59    frame= 1564 fps= 29 q=26.0 size=    2816KiB time=00:00:52.16 bitrate= 442.2kbits/s dup=0 drop=4 speed=0.982x elapsed=0:00:53.11    frame= 1579 fps= 29 q=26.0 size=    2816KiB time=00:00:52.66 bitrate= 438.0kbits/s dup=0 drop=4 speed=0.982x elapsed=0:00:53.62    frame= 1594 fps= 29 q=26.0 size=    2816KiB time=00:00:53.16 bitrate= 433.9kbits/s dup=0 drop=4 speed=0.982x elapsed=0:00:54.13    frame= 1610 fps= 29 q=26.0 size=    2816KiB time=00:00:53.70 bitrate= 429.6kbits/s dup=0 drop=4 speed=0.982x elapsed=0:00:54.65    frame= 1625 fps= 29 q=26.0 size=    2816KiB time=00:00:54.20 bitrate= 425.6kbits/s dup=0 drop=4 speed=0.982x elapsed=0:00:55.16    frame= 1641 fps= 29 q=26.0 size=    2816KiB time=00:00:54.73 bitrate= 421.5kbits/s dup=0 drop=4 speed=0.983x elapsed=0:00:55.69    frame= 1656 fps= 29 q=26.0 size=    2816KiB time=00:00:55.23 bitrate= 417.7kbits/s dup=0 drop=4 speed=0.983x elapsed=0:00:56.20    frame= 1672 fps= 29 q=26.0 size=    2816KiB time=00:00:55.76 bitrate= 413.7kbits/s dup=0 drop=4 speed=0.983x elapsed=0:00:56.72    frame= 1687 fps= 29 q=26.0 size=    2816KiB time=00:00:56.26 bitrate= 410.0kbits/s dup=0 drop=4 speed=0.983x elapsed=0:00:57.23    frame= 1703 fps= 29 q=26.0 size=    2816KiB time=00:00:56.80 bitrate= 406.1kbits/s dup=0 drop=4 speed=0.983x elapsed=0:00:57.75    frame= 1718 fps= 29 q=26.0 size=    2816KiB time=00:00:57.30 bitrate= 402.6kbits/s dup=0 drop=4 speed=0.983x elapsed=0:00:58.26    frame= 1734 fps= 29 q=26.0 size=    2816KiB time=00:00:57.86 bitrate= 398.7kbits/s dup=0 drop=4 speed=0.984x elapsed=0:00:58.78    frame= 1749 fps= 29 q=26.0 size=    2816KiB time=00:00:58.36 bitrate= 395.2kbits/s dup=0 drop=4 speed=0.984x elapsed=0:00:59.29    frame= 1765 fps= 30 q=26.0 size=    3072KiB time=00:00:58.90 bitrate= 427.3kbits/s dup=0 drop=4 speed=0.985x elapsed=0:00:59.82    frame= 1780 fps= 30 q=26.0 size=    3072KiB time=00:00:59.40 bitrate= 423.7kbits/s dup=0 drop=4 speed=0.985x elapsed=0:01:00.32    frame= 1794 fps= 29 q=26.0 size=    3072KiB time=00:00:59.86 bitrate= 420.4kbits/s dup=0 drop=5 speed=0.984x elapsed=0:01:00.85    frame= 1810 fps= 29 q=26.0 size=    3072KiB time=00:01:00.40 bitrate= 416.7kbits/s dup=0 drop=5 speed=0.984x elapsed=0:01:01.35    frame= 1825 fps= 29 q=26.0 size=    3072KiB time=00:01:00.90 bitrate= 413.2kbits/s dup=0 drop=5 speed=0.984x elapsed=0:01:01.88    frame= 1841 fps= 30 q=26.0 size=    3072KiB time=00:01:01.43 bitrate= 409.7kbits/s dup=0 drop=5 speed=0.985x elapsed=0:01:02.38    frame= 1856 fps= 30 q=26.0 size=    3072KiB time=00:01:01.93 bitrate= 406.3kbits/s dup=0 drop=5 speed=0.984x elapsed=0:01:02.91    frame= 1872 fps= 30 q=26.0 size=    3072KiB time=00:01:02.46 bitrate= 402.9kbits/s dup=0 drop=5 speed=0.985x elapsed=0:01:03.42    frame= 1887 fps= 30 q=26.0 size=    3072KiB time=00:01:02.96 bitrate= 399.7kbits/s dup=0 drop=5 speed=0.985x elapsed=0:01:03.94    frame= 1903 fps= 30 q=26.0 size=    3072KiB time=00:01:03.50 bitrate= 396.3kbits/s dup=0 drop=5 speed=0.985x elapsed=0:01:04.45    frame= 1918 fps= 30 q=26.0 size=    3328KiB time=00:01:04.00 bitrate= 426.0kbits/s dup=0 drop=5 speed=0.985x elapsed=0:01:04.97    frame= 1934 fps= 30 q=26.0 size=    3328KiB time=00:01:04.53 bitrate= 422.5kbits/s dup=0 drop=5 speed=0.985x elapsed=0:01:05.48    frame= 1949 fps= 30 q=26.0 size=    3328KiB time=00:01:05.03 bitrate= 419.2kbits/s dup=0 drop=5 speed=0.985x elapsed=0:01:05.99    frame= 1965 fps= 30 q=26.0 size=    3328KiB time=00:01:05.56 bitrate= 415.8kbits/s dup=0 drop=5 speed=0.986x elapsed=0:01:06.52    frame= 1980 fps= 30 q=26.0 size=    3328KiB time=00:01:06.06 bitrate= 412.7kbits/s dup=0 drop=5 speed=0.986x elapsed=0:01:07.02    frame= 1996 fps= 30 q=26.0 size=    3328KiB time=00:01:06.60 bitrate= 409.4kbits/s dup=0 drop=5 speed=0.986x elapsed=0:01:07.55    frame= 2011 fps= 30 q=26.0 size=    3584KiB time=00:01:07.10 bitrate= 437.6kbits/s dup=0 drop=5 speed=0.986x elapsed=0:01:08.05    frame= 2027 fps= 30 q=26.0 size=    3584KiB time=00:01:07.63 bitrate= 434.1kbits/s dup=0 drop=5 speed=0.986x elapsed=0:01:08.58    frame= 2042 fps= 30 q=26.0 size=    3584KiB time=00:01:08.13 bitrate= 430.9kbits/s dup=0 drop=5 speed=0.986x elapsed=0:01:09.09    frame= 2058 fps= 30 q=26.0 size=    3584KiB time=00:01:08.66 bitrate= 427.6kbits/s dup=0 drop=5 speed=0.986x elapsed=0:01:09.61    frame= 2073 fps= 30 q=26.0 size=    3584KiB time=00:01:09.16 bitrate= 424.5kbits/s dup=0 drop=5 speed=0.986x elapsed=0:01:10.12    frame= 2089 fps= 30 q=26.0 size=    3584KiB time=00:01:09.70 bitrate= 421.2kbits/s dup=0 drop=5 speed=0.987x elapsed=0:01:10.64    frame= 2104 fps= 30 q=26.0 size=    3584KiB time=00:01:10.20 bitrate= 418.2kbits/s dup=0 drop=5 speed=0.987x elapsed=0:01:11.15    frame= 2119 fps= 30 q=26.0 size=    3584KiB time=00:01:10.70 bitrate= 415.3kbits/s dup=0 drop=5 speed=0.986x elapsed=0:01:11.67    frame= 2135 fps= 30 q=26.0 size=    3584KiB time=00:01:11.23 bitrate= 412.2kbits/s dup=0 drop=5 speed=0.987x elapsed=0:01:12.18    frame= 2150 fps= 30 q=26.0 size=    3584KiB time=00:01:11.73 bitrate= 409.3kbits/s dup=0 drop=5 speed=0.987x elapsed=0:01:12.70    frame= 2166 fps= 30 q=26.0 size=    3584KiB time=00:01:12.26 bitrate= 406.3kbits/s dup=0 drop=5 speed=0.987x elapsed=0:01:13.21    frame= 2181 fps= 30 q=26.0 size=    3584KiB time=00:01:12.76 bitrate= 403.5kbits/s dup=0 drop=5 speed=0.987x elapsed=0:01:13.73    frame= 2197 fps= 30 q=26.0 size=    3584KiB time=00:01:13.30 bitrate= 400.6kbits/s dup=0 drop=5 speed=0.987x elapsed=0:01:14.24    frame= 2212 fps= 30 q=26.0 size=    3584KiB time=00:01:13.80 bitrate= 397.8kbits/s dup=0 drop=5 speed=0.987x elapsed=0:01:14.77    [out#0/mp4 @ 000002cb5cb09cc0] video:3734KiB audio:0KiB subtitle:0KiB other streams:0KiB global headers:0KiB muxing overhead: 0.729137%
frame= 2245 fps= 30 q=-1.0 Lsize=    3761KiB time=00:01:14.93 bitrate= 411.1kbits/s dup=0 drop=5 speed=0.998x elapsed=0:01:15.05    
[libx264 @ 000002cb5cb0e700] frame I:9     Avg QP:12.82  size:231844
[libx264 @ 000002cb5cb0e700] frame P:571   Avg QP:21.73  size:  2163
[libx264 @ 000002cb5cb0e700] frame B:1665  Avg QP:25.79  size:   301
[libx264 @ 000002cb5cb0e700] consecutive B-frames:  0.7%  1.0%  1.1% 97.3%
[libx264 @ 000002cb5cb0e700] mb I  I16..4: 55.9%  2.3% 41.8%
[libx264 @ 000002cb5cb0e700] mb P  I16..4:  0.3%  0.0%  0.1%  P16..4:  0.7%  0.2%  0.2%  0.0%  0.0%    skip:98.5%
[libx264 @ 000002cb5cb0e700] mb B  I16..4:  0.0%  0.0%  0.0%  B16..8:  0.3%  0.1%  0.0%  direct: 0.1%  skip:99.5%  L0:46.7% L1:45.8% BI: 7.5%
[libx264 @ 000002cb5cb0e700] 8x8 transform intra:2.1% inter:6.2%
[libx264 @ 000002cb5cb0e700] coded y,uvDC,uvAC intra: 34.3% 24.4% 21.8% inter: 0.2% 0.1% 0.1%
[libx264 @ 000002cb5cb0e700] i16 v,h,dc,p: 67% 33%  0%  0%
[libx264 @ 000002cb5cb0e700] i8 v,h,dc,ddl,ddr,vr,hd,vl,hu: 19% 35% 25%  3%  2%  2%  3%  3%  6%
[libx264 @ 000002cb5cb0e700] i4 v,h,dc,ddl,ddr,vr,hd,vl,hu: 31% 29% 16%  3%  4%  4%  4%  3%  5%
[libx264 @ 000002cb5cb0e700] i8c dc,h,v,p: 68% 22%  9%  1%
[libx264 @ 000002cb5cb0e700] Weighted P-Frames: Y:0.0% UV:0.0%
[libx264 @ 000002cb5cb0e700] kb/s:407.55
